<svg xmlns="http://www.w3.org/2000/svg" viewBox="0 0 1800.94 355.97">
    <g fill="#fff">
        <path d="M1605.86,226.43v29.39h6c46.33,0,92.66.08,139,0,20.39-.06,36.23,7.85,44.74,26.71,8.67,19.22,7,38.06-6.29,55-9.08,11.63-21.74,16.2-36.06,16.26-38,.15-76,.08-114,.08-27.66,0-55.33,0-83-.09a70.3,70.3,0,0,1-13.89-1.4c-20.72-4.36-31.86-18.45-33.19-41.6-.13-2.16-.11-4.33-.11-6.49q0-126.49,0-253a80.4,80.4,0,0,1,1.42-15.88c4.3-21,18.34-32.18,41.31-33.48,1.83-.1,3.66-.1,5.5-.1q97,0,194,0c20.8,0,36.39,8.45,45,27.84A51.63,51.63,0,0,1,1787,85.5a42.72,42.72,0,0,1-27.23,13.28,126.14,126.14,0,0,1-13.47.63q-66.75.06-133.49,0H1606v29.88h6.45q69.26,0,138.49,0c23.11,0,39.13,10.55,46.46,30.23,10.12,27.22-3.66,57.44-29.91,64.56-6.48,1.76-13.49,2.19-20.26,2.22-45,.18-90,.09-135,.09Z"/>
        <path d="M533.06,226.72h-138v5.64c0,24.33.09,48.66-.07,73a77.08,77.08,0,0,1-1.56,16.35c-4.39,19.4-21.22,32.71-42.38,34-8.94.56-17.65-.51-25.89-4.18-18.06-8-26.82-22.28-27.08-41.77-.24-17.67-.06-35.33-.06-53,0-69,.1-138-.05-207-.05-20.55,7.24-36.7,26.85-44.89,20-8.34,39.22-6.28,56.19,7.92,10.32,8.63,13.82,20.6,13.94,33.53.23,25.66.09,51.33.11,77V129h138v-5.4q0-37.24,0-74.5c0-22.48,9.1-37.22,27.66-44.9,19.36-8,43-3.68,57.17,10.49,8.26,8.23,11.34,18.58,12.08,29.85.18,2.66.11,5.33.11,8q0,125.47-.06,251a84.57,84.57,0,0,1-1.51,17.86c-4.21,19.32-21.66,33.39-42.73,34.2a67.49,67.49,0,0,1-20.71-2.26c-20.26-5.73-31.84-21.86-32-43.71-.16-25.66,0-51.33,0-77Z"/>
        <path d="M1288,99.43v29.88h6.62q69.24,0,138.48,0c23.07,0,39.1,10.61,46.39,30.32,10.08,27.22-3.77,57.44-30,64.51-6.49,1.74-13.49,2.15-20.27,2.18-44.82.18-89.65.09-134.48.09h-7c0,2.65,0,4.75,0,6.86-.1,26.16.14,52.33-.39,78.48-.64,31.71-30.17,47.44-55.36,43.55-26.33-4.07-40.85-21.14-40.86-47.74q0-128.73,0-257.46a73.43,73.43,0,0,1,1.45-14.87C1197,14.16,1211.3,2.82,1234.5,1.94c9-.34,18-.12,27-.12q86,0,172,0c20.81,0,36.8,8.38,44.83,28,8.17,19.93,5.53,38.88-9.1,55.39-7.29,8.22-16.77,12.42-27.58,13.59a128.8,128.8,0,0,1-13.47.62q-67.23.06-134.48,0Z"/>
        <path d="M98.09,129.73q8.37-11.8,16.74-23.61c20.38-28.84,41-57.51,61-86.58C189.21.2,207.9-2.25,228.54,1.91c19.51,3.93,31.13,16.7,35,36,3.17,16,0,30.6-11.33,43.21-25.69,28.66-51.1,57.57-76.62,86.39-1.1,1.23-2.14,2.51-3.33,3.92l46.21,59.2c12,15.37,24,30.76,36,46.08,9.78,12.41,13.18,26.36,10,41.78-4,19.74-16.45,31.76-35.78,35.88-19.93,4.25-38,.65-50.74-17q-38.56-53.5-76.83-107.23c-1-1.44-2.13-2.82-4-5.33v6.56c0,24.66.09,49.32-.07,74a76.38,76.38,0,0,1-1.58,16.35c-4.4,19.29-21.92,33.26-43,33.95a68,68,0,0,1-20.21-2.22C12.88,348,1.31,332.74.16,312.31c-.11-2-.09-4-.09-6Q.05,178.09,0,49.85C0,30.18,6.62,14.39,25,5.73,44-3.19,62.56-1.8,79.79,10.6c12,8.67,17.07,21.08,17.2,35.47.24,26,.09,52,.11,78v5.38Z"/>
        <path d="M883.68,255.82h6c30.16,0,60.34.66,90.48-.17,35.87-1,49.3,27.19,48.19,50.43a68,68,0,0,1-4.37,21.33c-6.71,17.06-20,26.15-38.24,26.26-51.49.33-103,.41-154.47,0-27.15-.22-42.81-16.21-44.14-43.35-.07-1.33-.08-2.67-.08-4q0-129.23,0-258.46c0-24.76,13.63-41.45,37.61-46.51,27.21-5.75,53.13,10.39,57.91,36.33a89.06,89.06,0,0,1,1,15.93q.09,97.48,0,195Z"/>
        <path d="M1053.56,177.81q0-64.49,0-128.95c0-24.08,11.64-40.4,33.23-46.44,13.28-3.73,26.41-3,38.87,3.38,15,7.63,23.39,19.81,24.58,36.74.23,3.32.41,6.65.41,10q0,125.19,0,250.39a103.31,103.31,0,0,1-1,15.93c-4.19,26.9-31,40-55.14,36.5-26.52-3.87-40.79-20.74-40.86-48.09C1053.48,264.1,1053.56,221,1053.56,177.81Z"/>
    </g>
</svg>